<?xml version="1.0" encoding="utf-8"?>
<!-- Generator: Adobe Illustrator 16.0.3, SVG Export Plug-In . SVG Version: 6.00 Build 0)  -->
<!DOCTYPE svg PUBLIC "-//W3C//DTD SVG 1.1//EN" "http://www.w3.org/Graphics/SVG/1.1/DTD/svg11.dtd">
<svg version="1.1" id="Layer_1" xmlns="http://www.w3.org/2000/svg" xmlns:xlink="http://www.w3.org/1999/xlink" x="0px" y="0px"
	 width="500px" height="500px" viewBox="0 0 500 500" enable-background="new 0 0 500 500" xml:space="preserve">
<g>
	<path fill="#00ADEE" d="M474.832,249.844c0,100.125-81.163,181.291-181.29,181.291c-100.122,0-181.29-81.166-181.29-181.291
		S193.42,68.555,293.542,68.555C393.669,68.555,474.832,149.719,474.832,249.844z"/>
	<g>
		<path fill="#00ADEE" d="M24.832,185.631c4.426-1.047,11.529-1.747,18.517-1.747c10.133,0,16.653,1.747,21.428,5.707
			c4.077,3.028,6.639,7.686,6.639,13.859c0,7.686-5.124,14.323-13.276,17.236v0.349c7.452,1.747,16.187,7.918,16.187,19.564
			c0,6.754-2.679,11.877-6.754,15.721c-5.357,5.009-14.208,7.337-27.018,7.337c-6.988,0-12.346-0.466-15.723-0.931V185.631z
			 M34.964,217.773h9.199c10.599,0,16.887-5.705,16.887-13.276c0-9.084-6.871-12.81-17.119-12.81c-4.658,0-7.337,0.349-8.967,0.7
			V217.773z M34.964,255.272c2.096,0.35,4.89,0.466,8.501,0.466c10.48,0,20.147-3.843,20.147-15.256
			c0-10.597-9.201-15.138-20.264-15.138h-8.384V255.272z"/>
		<path fill="#00ADEE" d="M93.538,180.275h10.248v82.684H93.538V180.275z"/>
		<path fill="#C6E9FA" d="M173.774,247.587c0,5.822,0.12,10.946,0.467,15.372h-9.085l-0.581-9.201h-0.234
			c-2.559,4.543-8.618,10.482-18.632,10.482c-8.852,0-19.447-5.008-19.447-24.688v-32.958h10.248v31.095
			c0,10.714,3.377,18.05,12.576,18.05c6.871,0,11.647-4.774,13.511-9.433c0.581-1.398,0.929-3.262,0.929-5.241v-34.472h10.248
			V247.587z"/>
		<path fill="#C6E9FA" d="M202.42,236.524c0.234,13.857,8.972,19.564,19.22,19.564c7.335,0,11.878-1.281,15.603-2.794l1.864,7.22
			c-3.611,1.63-9.897,3.609-18.866,3.609c-17.236,0-27.718-11.529-27.718-28.416c0-17.119,10.131-30.51,26.552-30.51
			c18.402,0,23.175,16.187,23.175,26.552c0,2.096-0.114,3.726-0.348,4.89L202.42,236.524z M232.353,229.187
			c0.117-6.405-2.679-16.653-14.093-16.653c-10.481,0-14.904,9.548-15.719,16.653H232.353z"/>
		<path fill="#FFFFFF" d="M286.849,250.615c4.542,2.911,11.063,5.124,18.051,5.124c10.368,0,16.421-5.357,16.421-13.393
			c0-7.22-4.192-11.529-14.791-15.489c-12.807-4.658-20.729-11.412-20.729-22.36c0-12.227,10.134-21.311,25.39-21.311
			c7.919,0,13.858,1.864,17.235,3.843l-2.796,8.269c-2.445-1.515-7.686-3.728-14.791-3.728c-10.712,0-14.79,6.405-14.79,11.763
			c0,7.337,4.776,10.946,15.605,15.14c13.277,5.239,19.915,11.529,19.915,23.058c0,12.112-8.852,22.709-27.367,22.709
			c-7.569,0-15.837-2.33-20.031-5.124L286.849,250.615z"/>
		<path fill="#FFFFFF" d="M361.036,232.447h0.233c1.396-1.979,3.26-4.541,4.891-6.405l16.654-19.449h12.229l-21.778,23.175
			l24.809,33.191H385.61l-19.33-27.135l-5.244,5.939v21.196h-10.248v-82.684h10.248V232.447z"/>
		<path fill="#FFFFFF" d="M417.03,206.593l12.229,33.308c1.396,3.726,2.793,8.152,3.728,11.529h0.234
			c1.046-3.377,2.211-7.686,3.607-11.763l11.18-33.074h10.833l-15.372,40.179c-7.339,19.332-12.346,29.231-19.334,35.402
			c-5.124,4.309-10.014,6.056-12.579,6.521l-2.559-8.617c2.559-0.698,5.938-2.33,8.965-5.008c2.796-2.213,6.173-6.173,8.618-11.413
			c0.468-1.048,0.815-1.747,0.815-2.445c0-0.583-0.234-1.397-0.815-2.563l-20.729-52.056H417.03z"/>
	</g>
	<g>
		<path fill="#C6E9FA" d="M174.861,286.238c-1.498,0-2.493-1.177-2.493-2.581s1.042-2.537,2.581-2.537
			c1.542,0,2.537,1.133,2.537,2.537s-0.995,2.581-2.581,2.581H174.861z M172.959,312.187v-21.918h3.983v21.918H172.959z"/>
		<path fill="#C6E9FA" d="M185.819,296.201c0-2.309-0.047-4.119-0.18-5.933h3.532l0.227,3.576h0.089
			c1.086-2.034,3.623-4.075,7.247-4.075c3.033,0,7.746,1.813,7.746,9.332v13.085h-3.987v-12.633c0-3.535-1.314-6.523-5.073-6.523
			c-2.581,0-4.619,1.857-5.345,4.075c-0.18,0.499-0.271,1.226-0.271,1.857v13.224h-3.984V296.201z"/>
		<path fill="#C6E9FA" d="M217.843,285.016v5.253h5.706v3.033h-5.706v11.821c0,2.717,0.771,4.258,2.989,4.258
			c1.086,0,1.718-0.091,2.309-0.271l0.18,3.033c-0.771,0.271-1.99,0.543-3.532,0.543c-1.858,0-3.352-0.632-4.303-1.674
			c-1.087-1.227-1.542-3.172-1.542-5.753v-11.957h-3.393v-3.033h3.393v-4.03L217.843,285.016z"/>
		<path fill="#C6E9FA" d="M232.292,301.907c0.095,5.389,3.488,7.606,7.474,7.606c2.856,0,4.619-0.496,6.069-1.086l0.723,2.812
			c-1.402,0.632-3.848,1.402-7.335,1.402c-6.704,0-10.779-4.486-10.779-11.051c0-6.659,3.942-11.865,10.327-11.865
			c7.155,0,9.013,6.293,9.013,10.324c0,0.814-0.044,1.449-0.139,1.901L232.292,301.907z M243.934,299.055
			c0.047-2.493-1.04-6.477-5.481-6.477c-4.075,0-5.794,3.712-6.113,6.477H243.934z"/>
		<path fill="#C6E9FA" d="M255.031,297.105c0-2.578-0.048-4.799-0.184-6.837h3.487l0.181,4.303h0.136
			c0.998-2.944,3.443-4.802,6.116-4.802c0.404,0,0.723,0.045,1.086,0.136v3.716c-0.454-0.048-0.862-0.092-1.405-0.092
			c-2.809,0-4.799,2.129-5.342,5.073c-0.092,0.588-0.14,1.223-0.14,1.901v11.683h-3.983L255.031,297.105z"/>
		<path fill="#FFFFFF" d="M273.417,296.201c0-2.309-0.092-4.119-0.184-5.933h3.487l0.184,3.532h0.133
			c1.226-2.085,3.26-4.031,6.93-4.031c2.944,0,5.207,1.813,6.16,4.395h0.089c0.683-1.267,1.586-2.177,2.492-2.853
			c1.312-0.998,2.717-1.542,4.799-1.542c2.944,0,7.247,1.902,7.247,9.509v12.908h-3.896v-12.409c0-4.255-1.582-6.747-4.754-6.747
			c-2.31,0-4.031,1.677-4.758,3.579c-0.177,0.591-0.315,1.311-0.315,1.993v13.584h-3.893v-13.132c0-3.532-1.541-6.024-4.574-6.024
			c-2.445,0-4.302,1.993-4.937,3.986c-0.228,0.588-0.319,1.271-0.319,1.946v13.224h-3.892V296.201z"/>
		<path fill="#FFFFFF" d="M322.372,312.686c-5.889,0-10.507-4.347-10.507-11.277c0-7.336,4.846-11.639,10.87-11.639
			c6.293,0,10.552,4.574,10.552,11.234c0,8.15-5.661,11.682-10.871,11.682H322.372z M322.508,309.697
			c3.804,0,6.659-3.576,6.659-8.562c0-3.712-1.857-8.378-6.57-8.378c-4.663,0-6.701,4.348-6.701,8.518
			c0,4.799,2.717,8.422,6.568,8.422H322.508z"/>
		<path fill="#FFFFFF" d="M359.551,280.033v26.492c0,1.949,0.045,4.17,0.184,5.661h-3.579l-0.181-3.804h-0.091
			c-1.223,2.445-3.852,4.303-7.428,4.303c-5.301,0-9.42-4.482-9.42-11.139c-0.044-7.339,4.53-11.777,9.828-11.777
			c3.396,0,5.661,1.586,6.611,3.305h0.089v-13.041H359.551z M355.564,299.19c0-0.544-0.044-1.176-0.177-1.719
			c-0.591-2.492-2.765-4.574-5.756-4.574c-4.12,0-6.564,3.62-6.564,8.422c0,4.482,2.218,8.15,6.476,8.15
			c2.673,0,5.118-1.811,5.845-4.755c0.133-0.543,0.177-1.086,0.177-1.721V299.19z"/>
		<path fill="#FFFFFF" d="M383.869,306.937c0,1.901,0.096,3.759,0.319,5.25h-3.579l-0.36-2.761h-0.136
			c-1.178,1.722-3.579,3.26-6.703,3.26c-4.438,0-6.7-3.124-6.7-6.293c0-5.301,4.707-8.201,13.176-8.153v-0.452
			c0-1.813-0.496-5.117-4.981-5.073c-2.085,0-4.211,0.588-5.75,1.63l-0.906-2.672c1.811-1.131,4.482-1.902,7.244-1.902
			c6.747,0,8.377,4.574,8.377,8.966V306.937z M379.978,301.004c-4.347-0.092-9.284,0.676-9.284,4.934
			c0,2.629,1.722,3.804,3.712,3.804c2.899,0,4.757-1.81,5.389-3.667c0.14-0.408,0.184-0.859,0.184-1.268V301.004z"/>
		<path fill="#FFFFFF" d="M392.522,280.033h3.983v32.153h-3.983V280.033z"/>
	</g>
</g>
<rect fill="none" width="500" height="500"/>
</svg>
